<mxfile host="app.diagrams.net" modified="2021-11-03T17:18:57.769Z" agent="5.0 (Macintosh; Intel Mac OS X 10_15_7) AppleWebKit/537.36 (KHTML, like Gecko) Chrome/94.0.4606.81 Safari/537.36 Edg/94.0.992.50" etag="_aghRvBoYeXoFv-WsxlL" version="15.6.6" type="github" pages="2">
  <diagram id="WGLj5hRC0gGVtmgglTK7" name="Page-1">
    <mxGraphModel dx="1426" dy="659" grid="1" gridSize="10" guides="1" tooltips="1" connect="1" arrows="1" fold="1" page="1" pageScale="1" pageWidth="850" pageHeight="1100" math="0" shadow="0">
      <root>
        <mxCell id="0" />
        <mxCell id="1" parent="0" />
        <mxCell id="caUAtFQR4EZU2madjnSx-15" value="" style="edgeStyle=orthogonalEdgeStyle;rounded=0;orthogonalLoop=1;jettySize=auto;html=1;" parent="1" source="caUAtFQR4EZU2madjnSx-1" target="caUAtFQR4EZU2madjnSx-5" edge="1">
          <mxGeometry relative="1" as="geometry" />
        </mxCell>
        <mxCell id="caUAtFQR4EZU2madjnSx-1" value="Go App submission" style="ellipse;whiteSpace=wrap;html=1;" parent="1" vertex="1">
          <mxGeometry x="120" y="60" width="120" height="80" as="geometry" />
        </mxCell>
        <mxCell id="caUAtFQR4EZU2madjnSx-2" value="Jira Creation" style="shape=process;whiteSpace=wrap;html=1;backgroundOutline=1;" parent="1" vertex="1">
          <mxGeometry x="120" y="280" width="120" height="60" as="geometry" />
        </mxCell>
        <mxCell id="caUAtFQR4EZU2madjnSx-14" value="" style="edgeStyle=orthogonalEdgeStyle;rounded=0;orthogonalLoop=1;jettySize=auto;html=1;" parent="1" source="caUAtFQR4EZU2madjnSx-3" target="caUAtFQR4EZU2madjnSx-13" edge="1">
          <mxGeometry relative="1" as="geometry" />
        </mxCell>
        <mxCell id="caUAtFQR4EZU2madjnSx-3" value="Json creation" style="shape=process;whiteSpace=wrap;html=1;backgroundOutline=1;" parent="1" vertex="1">
          <mxGeometry x="490" y="170" width="120" height="60" as="geometry" />
        </mxCell>
        <mxCell id="caUAtFQR4EZU2madjnSx-4" value="" style="shape=process;whiteSpace=wrap;html=1;backgroundOutline=1;" parent="1" vertex="1">
          <mxGeometry x="120" y="400" width="120" height="60" as="geometry" />
        </mxCell>
        <mxCell id="caUAtFQR4EZU2madjnSx-7" value="" style="edgeStyle=orthogonalEdgeStyle;rounded=0;orthogonalLoop=1;jettySize=auto;html=1;" parent="1" source="caUAtFQR4EZU2madjnSx-5" target="caUAtFQR4EZU2madjnSx-2" edge="1">
          <mxGeometry relative="1" as="geometry" />
        </mxCell>
        <mxCell id="caUAtFQR4EZU2madjnSx-11" value="" style="edgeStyle=orthogonalEdgeStyle;rounded=0;orthogonalLoop=1;jettySize=auto;html=1;" parent="1" source="caUAtFQR4EZU2madjnSx-5" target="caUAtFQR4EZU2madjnSx-9" edge="1">
          <mxGeometry relative="1" as="geometry" />
        </mxCell>
        <mxCell id="caUAtFQR4EZU2madjnSx-5" value="Standard Template?" style="rhombus;whiteSpace=wrap;html=1;" parent="1" vertex="1">
          <mxGeometry x="140" y="160" width="80" height="80" as="geometry" />
        </mxCell>
        <mxCell id="caUAtFQR4EZU2madjnSx-8" value="" style="rounded=0;whiteSpace=wrap;html=1;" parent="1" vertex="1">
          <mxGeometry x="360" y="470" width="120" height="60" as="geometry" />
        </mxCell>
        <mxCell id="caUAtFQR4EZU2madjnSx-12" value="" style="edgeStyle=orthogonalEdgeStyle;rounded=0;orthogonalLoop=1;jettySize=auto;html=1;" parent="1" source="caUAtFQR4EZU2madjnSx-9" target="caUAtFQR4EZU2madjnSx-3" edge="1">
          <mxGeometry relative="1" as="geometry" />
        </mxCell>
        <mxCell id="caUAtFQR4EZU2madjnSx-9" value="Create SN Req" style="rounded=0;whiteSpace=wrap;html=1;" parent="1" vertex="1">
          <mxGeometry x="310" y="170" width="120" height="60" as="geometry" />
        </mxCell>
        <mxCell id="caUAtFQR4EZU2madjnSx-13" value="Gitlab Workflow" style="shape=process;whiteSpace=wrap;html=1;backgroundOutline=1;" parent="1" vertex="1">
          <mxGeometry x="690" y="170" width="120" height="60" as="geometry" />
        </mxCell>
        <mxCell id="0aMbx-ErIeKymPqQQrBj-1" value="Yes" style="text;html=1;align=center;verticalAlign=middle;resizable=0;points=[];autosize=1;strokeColor=none;fillColor=none;" vertex="1" parent="1">
          <mxGeometry x="240" y="180" width="40" height="20" as="geometry" />
        </mxCell>
        <mxCell id="0aMbx-ErIeKymPqQQrBj-2" value="No" style="text;html=1;align=center;verticalAlign=middle;resizable=0;points=[];autosize=1;strokeColor=none;fillColor=none;" vertex="1" parent="1">
          <mxGeometry x="175" y="250" width="30" height="20" as="geometry" />
        </mxCell>
      </root>
    </mxGraphModel>
  </diagram>
  <diagram id="5-2gyrLXOSFlZcdKZ91q" name="Json Creation">
    <mxGraphModel dx="1426" dy="659" grid="1" gridSize="10" guides="1" tooltips="1" connect="1" arrows="1" fold="1" page="1" pageScale="1" pageWidth="850" pageHeight="1100" math="0" shadow="0">
      <root>
        <mxCell id="z48Ql13XJHcgQffvw3fb-0" />
        <mxCell id="z48Ql13XJHcgQffvw3fb-1" parent="z48Ql13XJHcgQffvw3fb-0" />
        <mxCell id="z48Ql13XJHcgQffvw3fb-7" value="" style="edgeStyle=orthogonalEdgeStyle;rounded=0;orthogonalLoop=1;jettySize=auto;html=1;" parent="z48Ql13XJHcgQffvw3fb-1" source="z48Ql13XJHcgQffvw3fb-2" target="z48Ql13XJHcgQffvw3fb-4" edge="1">
          <mxGeometry relative="1" as="geometry" />
        </mxCell>
        <mxCell id="z48Ql13XJHcgQffvw3fb-2" value="recieve json to customer" style="ellipse;whiteSpace=wrap;html=1;" parent="z48Ql13XJHcgQffvw3fb-1" vertex="1">
          <mxGeometry x="160" y="70" width="120" height="80" as="geometry" />
        </mxCell>
        <mxCell id="d0-PFGvI16iyVl5Z31nW-8" value="" style="edgeStyle=orthogonalEdgeStyle;rounded=0;orthogonalLoop=1;jettySize=auto;html=1;" parent="z48Ql13XJHcgQffvw3fb-1" source="z48Ql13XJHcgQffvw3fb-4" target="z48Ql13XJHcgQffvw3fb-5" edge="1">
          <mxGeometry relative="1" as="geometry" />
        </mxCell>
        <mxCell id="z48Ql13XJHcgQffvw3fb-4" value="Set name&lt;br&gt;Set Path&lt;br&gt;Inbound Auth type" style="rounded=0;whiteSpace=wrap;html=1;" parent="z48Ql13XJHcgQffvw3fb-1" vertex="1">
          <mxGeometry x="160" y="200" width="120" height="60" as="geometry" />
        </mxCell>
        <mxCell id="d0-PFGvI16iyVl5Z31nW-9" value="" style="edgeStyle=orthogonalEdgeStyle;rounded=0;orthogonalLoop=1;jettySize=auto;html=1;" parent="z48Ql13XJHcgQffvw3fb-1" source="z48Ql13XJHcgQffvw3fb-5" target="d0-PFGvI16iyVl5Z31nW-7" edge="1">
          <mxGeometry relative="1" as="geometry" />
        </mxCell>
        <mxCell id="z48Ql13XJHcgQffvw3fb-5" value="define backend&lt;br&gt;location of swagger&lt;br&gt;" style="rounded=0;whiteSpace=wrap;html=1;" parent="z48Ql13XJHcgQffvw3fb-1" vertex="1">
          <mxGeometry x="160" y="290" width="120" height="60" as="geometry" />
        </mxCell>
        <mxCell id="d0-PFGvI16iyVl5Z31nW-1" value="" style="edgeStyle=orthogonalEdgeStyle;rounded=0;orthogonalLoop=1;jettySize=auto;html=1;" parent="z48Ql13XJHcgQffvw3fb-1" source="z48Ql13XJHcgQffvw3fb-6" target="d0-PFGvI16iyVl5Z31nW-0" edge="1">
          <mxGeometry relative="1" as="geometry" />
        </mxCell>
        <mxCell id="z48Ql13XJHcgQffvw3fb-6" value="assign URI based on business topology and service&lt;br&gt;" style="rounded=0;whiteSpace=wrap;html=1;" parent="z48Ql13XJHcgQffvw3fb-1" vertex="1">
          <mxGeometry x="160" y="470" width="120" height="60" as="geometry" />
        </mxCell>
        <mxCell id="d0-PFGvI16iyVl5Z31nW-4" value="" style="edgeStyle=orthogonalEdgeStyle;rounded=0;orthogonalLoop=1;jettySize=auto;html=1;" parent="z48Ql13XJHcgQffvw3fb-1" source="d0-PFGvI16iyVl5Z31nW-0" target="d0-PFGvI16iyVl5Z31nW-2" edge="1">
          <mxGeometry relative="1" as="geometry" />
        </mxCell>
        <mxCell id="d0-PFGvI16iyVl5Z31nW-0" value="Run Go app to bring in certs" style="rounded=0;whiteSpace=wrap;html=1;" parent="z48Ql13XJHcgQffvw3fb-1" vertex="1">
          <mxGeometry x="160" y="560" width="120" height="60" as="geometry" />
        </mxCell>
        <mxCell id="d0-PFGvI16iyVl5Z31nW-5" value="" style="edgeStyle=orthogonalEdgeStyle;rounded=0;orthogonalLoop=1;jettySize=auto;html=1;" parent="z48Ql13XJHcgQffvw3fb-1" source="d0-PFGvI16iyVl5Z31nW-2" target="d0-PFGvI16iyVl5Z31nW-3" edge="1">
          <mxGeometry relative="1" as="geometry" />
        </mxCell>
        <mxCell id="d0-PFGvI16iyVl5Z31nW-2" value="Generate api.config&lt;br&gt;generate env-config&lt;br&gt;" style="rounded=0;whiteSpace=wrap;html=1;" parent="z48Ql13XJHcgQffvw3fb-1" vertex="1">
          <mxGeometry x="160" y="650" width="120" height="60" as="geometry" />
        </mxCell>
        <mxCell id="d0-PFGvI16iyVl5Z31nW-3" value="commit to Axway_policies&amp;nbsp;&lt;br&gt;branched dev" style="rounded=0;whiteSpace=wrap;html=1;" parent="z48Ql13XJHcgQffvw3fb-1" vertex="1">
          <mxGeometry x="160" y="740" width="120" height="60" as="geometry" />
        </mxCell>
        <mxCell id="d0-PFGvI16iyVl5Z31nW-10" value="" style="edgeStyle=orthogonalEdgeStyle;rounded=0;orthogonalLoop=1;jettySize=auto;html=1;" parent="z48Ql13XJHcgQffvw3fb-1" source="d0-PFGvI16iyVl5Z31nW-7" target="z48Ql13XJHcgQffvw3fb-6" edge="1">
          <mxGeometry relative="1" as="geometry" />
        </mxCell>
        <mxCell id="d0-PFGvI16iyVl5Z31nW-7" value="Backend Auth Type" style="shape=process;whiteSpace=wrap;html=1;backgroundOutline=1;" parent="z48Ql13XJHcgQffvw3fb-1" vertex="1">
          <mxGeometry x="160" y="380" width="120" height="60" as="geometry" />
        </mxCell>
      </root>
    </mxGraphModel>
  </diagram>
</mxfile>
